<?xml version="1.0" standalone="no"?>
<!DOCTYPE svg PUBLIC "-//W3C//DTD SVG 20010904//EN"
 "http://www.w3.org/TR/2001/REC-SVG-20010904/DTD/svg10.dtd">
<svg version="1.0" xmlns="http://www.w3.org/2000/svg"
 width="1376.000000pt" height="1376.000000pt" viewBox="0 0 1376.000000 1376.000000"
 preserveAspectRatio="xMidYMid meet">
<metadata>
Created by potrace 1.14, written by Peter Selinger 2001-2017
</metadata>
<g transform="translate(0.000000,1376.000000) scale(0.100000,-0.100000)"
fill="#000000" stroke="none">
<path d="M1803 9402 c-71 -110 -94 -148 -125 -212 -12 -25 -27 -48 -32 -52 -6
-4 -8 -8 -4 -8 3 0 -6 -26 -22 -57 -29 -62 -105 -279 -114 -328 -9 -52 -16
-89 -21 -111 -23 -103 -23 -335 1 -474 59 -351 278 -707 599 -975 33 -28 62
-52 65 -55 6 -6 82 -61 155 -112 74 -51 203 -128 215 -128 11 0 7 313 -5 380
-6 38 -27 139 -31 155 -2 6 -5 19 -8 30 -12 51 -59 191 -68 203 -6 6 -8 12 -5
12 6 0 -99 213 -125 255 -52 84 -111 171 -158 235 -84 114 -107 150 -135 215
-15 33 -31 69 -35 80 -37 85 -73 255 -87 415 -15 175 0 584 23 621 3 5 -1 9
-8 9 -7 0 -41 -44 -75 -98z"/>
<path d="M1960 9400 c-1 -8 -4 -26 -8 -40 -14 -58 -6 -345 12 -425 24 -108 24
-110 26 -110 1 0 3 -9 4 -20 10 -72 149 -375 250 -545 69 -116 115 -191 146
-240 27 -42 36 -58 71 -120 8 -14 26 -43 40 -65 28 -45 146 -279 171 -340 39
-96 72 -208 84 -280 3 -22 7 -42 9 -45 2 -4 7 -51 11 -105 3 -55 8 -101 9
-103 2 -3 132 258 164 329 11 26 23 60 27 75 4 16 10 34 14 39 18 25 43 159
46 245 5 148 -29 243 -120 335 -37 38 -85 89 -187 201 -77 85 -252 312 -332
432 -100 149 -229 362 -220 362 3 0 -1 8 -9 18 -16 18 -150 282 -185 367 -12
28 -22 43 -23 35z"/>
<path d="M3665 9080 c-45 -6 -56 -31 -15 -37 54 -8 55 -10 55 -314 0 -266 -1
-281 -19 -295 -11 -8 -30 -14 -42 -14 -15 0 -21 -5 -20 -17 3 -16 18 -18 154
-20 120 -1 152 2 156 13 6 16 1 19 -41 29 -18 3 -36 12 -40 18 -8 13 -14 550
-7 579 7 24 135 19 164 -7 11 -10 20 -21 20 -25 0 -4 7 -24 15 -44 13 -31 18
-35 34 -27 15 8 17 17 12 48 -4 21 -6 55 -5 76 l2 37 -67 1 c-36 0 -122 1
-191 2 -69 1 -143 0 -165 -3z"/>
<path d="M4184 9080 c-25 -4 -30 -9 -25 -23 4 -10 10 -18 14 -18 20 2 27 0 41
-15 14 -13 16 -54 16 -292 -1 -298 -3 -313 -52 -316 -12 0 -24 -8 -26 -17 -3
-15 14 -16 149 -15 108 1 153 4 156 13 3 7 -10 15 -31 18 -19 4 -40 13 -46 20
-7 8 -12 60 -13 122 -1 102 0 108 18 105 88 -13 178 12 233 65 49 48 68 131
48 218 -2 11 -5 23 -5 26 -1 3 -13 20 -28 38 -46 55 -116 75 -243 71 -8 -1
-51 0 -95 2 -44 2 -94 1 -111 -2z m279 -52 c48 -25 67 -71 67 -157 -1 -95 -51
-171 -110 -165 -8 1 -23 2 -32 3 -16 1 -18 16 -18 160 0 118 3 161 13 164 22
9 58 7 80 -5z"/>
<path d="M4719 9069 c-6 -13 0 -19 31 -32 36 -14 44 -24 78 -99 94 -203 172
-397 172 -424 0 -32 -35 -78 -54 -71 -97 36 -114 34 -127 -16 -9 -32 27 -69
68 -72 78 -5 133 58 206 240 24 61 48 119 52 130 5 11 9 22 9 25 6 25 94 231
108 252 10 15 34 32 54 38 25 8 34 16 30 27 -3 8 -6 15 -6 16 0 4 -213 -3
-217 -6 -11 -11 12 -36 38 -41 38 -7 37 -19 -7 -147 -19 -57 -42 -126 -51
-152 -15 -45 -30 -51 -37 -16 -1 8 -8 25 -14 39 -43 95 -97 238 -97 255 0 13
8 21 21 23 12 2 24 12 27 23 5 17 0 19 -46 20 -29 0 -92 1 -140 2 -73 2 -91
-1 -98 -14z"/>
<path d="M5455 9080 c-60 -4 -80 -9 -80 -19 0 -8 7 -15 16 -16 39 -6 57 -17
63 -38 3 -12 6 -140 6 -284 0 -250 -1 -264 -20 -283 -11 -11 -29 -20 -40 -20
-13 0 -20 -7 -20 -19 0 -18 9 -19 144 -19 109 0 146 4 150 13 6 17 -3 25 -25
25 -29 0 -52 44 -47 90 2 22 1 40 -2 40 -4 0 -4 34 0 125 1 17 1 62 0 102 -1
40 1 77 5 82 3 6 3 11 -2 11 -7 0 -8 61 0 135 l2 30 103 1 c59 1 105 -3 109
-9 3 -5 6 -135 5 -289 0 -251 -2 -282 -18 -299 -9 -10 -25 -19 -36 -19 -11 0
-18 -7 -18 -19 0 -18 9 -19 145 -18 133 1 145 2 145 19 0 12 -8 18 -25 18 -15
0 -31 9 -41 25 -14 21 -16 61 -16 275 0 138 3 264 7 280 5 24 14 32 47 41 37
9 39 12 25 26 -12 13 -55 15 -258 17 -134 0 -280 -1 -324 -4z"/>
<path d="M6144 9082 c-36 -3 -41 -6 -37 -22 3 -11 8 -18 12 -16 3 2 21 -2 39
-9 37 -16 34 15 35 -315 0 -129 -3 -247 -6 -262 -6 -21 -15 -29 -40 -33 -22
-4 -33 -12 -34 -25 -1 -16 9 -18 144 -16 109 1 147 4 151 14 2 7 -10 17 -27
23 -17 6 -35 19 -40 28 -4 9 -7 144 -7 301 l1 285 107 2 c92 1 107 -1 110 -15
2 -9 4 -142 3 -296 -1 -262 -2 -279 -20 -292 -10 -8 -27 -14 -38 -14 -12 0
-17 -6 -15 -17 3 -16 19 -18 145 -19 111 -1 143 1 147 12 6 15 2 19 -37 28
-16 4 -31 16 -37 31 -5 13 -8 142 -7 288 2 285 3 290 56 300 20 4 29 12 27 23
-2 15 -32 16 -297 18 -162 0 -313 0 -335 -2z"/>
<path d="M7101 8998 c-104 -293 -123 -345 -132 -360 -5 -10 -9 -22 -9 -27 0
-5 -5 -22 -12 -38 -6 -15 -11 -30 -10 -33 0 -3 -9 -25 -21 -50 -15 -30 -34
-51 -57 -62 -64 -32 -45 -43 75 -43 91 0 110 3 110 15 0 8 -13 20 -30 25 -16
6 -31 18 -33 28 -6 33 29 145 47 149 9 2 52 3 95 3 l79 -1 22 -74 c16 -53 20
-80 13 -93 -5 -10 -12 -16 -15 -13 -8 8 -33 -14 -33 -29 0 -9 35 -12 140 -12
77 0 142 3 145 6 6 10 -10 32 -26 34 -44 7 -53 26 -169 379 -91 276 -96 288
-120 288 -23 0 -29 -9 -59 -92z m48 -219 c17 -59 31 -109 31 -112 0 -4 -31 -6
-70 -6 -47 1 -70 5 -70 13 0 6 9 35 19 64 11 29 19 54 19 55 -2 3 24 81 29 90
7 12 8 11 42 -104z"/>
<path d="M9763 8077 l-43 -30 -404 -1 c-416 -1 -458 2 -472 39 -7 18 -64 20
-65 3 0 -7 -2 -38 -4 -68 -2 -30 -7 -93 -10 -140 -3 -47 -7 -105 -8 -130 l-2
-45 37 -3 36 -3 13 55 c18 82 59 157 97 179 24 14 59 21 132 24 l100 6 0 -54
c2 -390 -1 -1061 -6 -1084 -10 -56 -48 -81 -131 -87 -18 -1 -33 -5 -34 -8 -1
-3 -2 -19 -3 -37 l-2 -32 318 1 318 0 -2 34 c-1 19 -5 35 -8 35 -3 1 -17 3
-31 4 -15 2 -45 9 -68 15 -78 21 -75 -2 -76 643 l-1 568 103 -4 c128 -6 157
-20 194 -96 15 -29 32 -77 39 -106 11 -44 16 -52 34 -50 11 1 27 3 34 4 10 1
12 23 6 104 -5 88 -10 173 -13 254 -2 40 -31 44 -78 10z"/>
<path d="M4514 8064 c-49 -20 -99 -87 -144 -193 -94 -219 -128 -281 -184 -336
-30 -29 -67 -55 -83 -59 -84 -20 -109 -24 -119 -16 -10 9 -10 381 0 425 2 11
5 23 5 26 1 3 10 16 21 29 14 16 34 24 70 28 l50 5 0 37 0 37 -290 -1 -290 0
0 -38 c0 -36 2 -38 33 -38 17 0 48 -8 67 -18 28 -14 37 -26 46 -61 7 -29 10
-224 9 -555 0 -558 0 -557 -58 -584 -16 -8 -43 -15 -60 -16 -29 -2 -32 -6 -35
-39 l-3 -37 290 0 291 0 0 35 c0 19 -3 35 -7 36 -37 4 -72 12 -93 22 -49 24
-53 49 -54 349 l-1 277 35 -5 c66 -11 95 -37 134 -119 22 -48 52 -131 61 -171
7 -30 70 -207 83 -230 6 -12 10 -23 8 -25 -11 -12 75 -117 113 -138 47 -26 65
-29 196 -31 175 -3 165 -5 165 35 0 20 -5 35 -12 35 -21 0 -113 48 -129 68
-23 27 -80 148 -129 272 -95 240 -141 299 -273 349 l-28 11 59 57 c40 39 74
87 105 146 25 48 45 89 45 90 -1 1 13 30 32 65 36 69 79 112 113 113 95 3 131
16 142 50 12 36 -4 86 -32 105 -34 21 -108 26 -149 8z"/>
<path d="M8148 8064 c-306 -48 -516 -242 -584 -540 -26 -113 -23 -292 6 -399
25 -93 73 -198 107 -235 13 -14 26 -32 29 -40 7 -21 104 -99 165 -132 58 -33
158 -68 209 -75 61 -8 274 -9 300 -2 14 4 63 15 110 24 76 15 87 20 97 43 11
26 44 127 49 147 2 6 11 40 22 78 20 71 19 73 -27 87 -27 7 -30 5 -47 -34 -23
-51 -104 -159 -145 -194 -35 -29 -99 -65 -99 -56 0 4 -6 2 -12 -4 -7 -5 -43
-9 -80 -7 -86 2 -162 40 -228 111 -67 74 -129 211 -146 324 -3 19 -9 49 -13
65 -9 37 -7 231 3 300 4 28 7 55 7 60 1 6 5 16 11 23 6 6 8 12 4 12 -11 0 43
131 78 189 70 114 161 173 276 177 145 5 243 -72 310 -241 13 -33 24 -61 25
-62 1 -1 17 2 36 7 38 11 38 9 25 105 -2 22 -8 69 -12 105 -4 36 -8 74 -10 85
-1 11 -3 25 -3 31 -3 39 -314 72 -463 48z"/>
<path d="M10605 8065 c-5 -2 -22 -6 -36 -9 -24 -5 -32 -20 -73 -135 -25 -71
-46 -132 -46 -136 0 -4 -6 -21 -14 -38 -12 -27 -131 -358 -199 -552 -11 -33
-24 -64 -27 -70 -4 -5 -10 -21 -13 -35 -3 -14 -22 -68 -42 -120 -20 -52 -39
-104 -42 -115 -10 -32 -54 -85 -83 -100 -23 -12 -55 -20 -92 -24 -5 -1 -8 -17
-8 -36 l0 -35 220 0 220 0 0 34 c0 36 -2 38 -66 51 -36 7 -65 34 -66 61 -1 26
36 169 65 249 l14 40 182 0 182 0 29 -82 c15 -46 26 -83 23 -83 -3 0 0 -7 7
-15 7 -8 10 -15 7 -15 -4 0 0 -17 7 -37 26 -76 7 -115 -61 -128 -30 -5 -33 -9
-33 -40 l0 -35 279 0 c257 0 279 1 283 18 8 35 -3 50 -46 61 -52 13 -87 43
-115 99 -16 32 -247 706 -295 862 -5 14 -10 31 -12 38 -2 6 -5 18 -7 25 -1 6
-5 17 -8 22 -3 6 -11 30 -18 55 -7 25 -17 54 -22 65 -7 18 -21 61 -24 75 -18
77 -34 97 -70 85z m-66 -505 c11 -36 38 -125 60 -199 23 -73 44 -137 47 -142
3 -5 -59 -9 -146 -9 l-151 0 7 23 c28 85 116 365 119 377 2 8 9 29 16 45 l12
30 8 -30 c4 -16 17 -59 28 -95z"/>
<path d="M4883 8034 c-2 -7 -3 -23 -1 -36 2 -18 11 -24 40 -29 51 -8 82 -31
94 -71 17 -53 13 -1086 -4 -1115 -16 -28 -42 -42 -95 -51 -36 -7 -42 -11 -48
-39 l-6 -31 305 1 c289 2 305 3 308 21 4 25 -6 47 -20 44 -6 -1 -32 1 -57 5
-57 10 -86 39 -97 98 -10 61 -7 404 4 402 5 -1 36 -8 69 -16 68 -17 117 -15
207 8 112 29 195 85 271 186 28 38 58 147 59 219 2 132 -27 215 -101 288 -66
65 -72 69 -138 91 -94 31 -113 33 -456 36 -263 2 -330 0 -334 -11z m599 -90
c60 -31 100 -87 123 -174 13 -49 13 -215 1 -265 -24 -93 -87 -174 -154 -196
-38 -13 -141 -6 -151 10 -9 14 -6 581 2 607 4 12 17 26 30 31 31 15 109 8 149
-13z"/>
<path d="M6049 8040 c0 -3 -2 -13 -4 -24 -6 -33 5 -43 54 -50 57 -7 88 -31
101 -78 6 -20 9 -244 8 -558 -3 -565 -2 -555 -55 -579 -13 -6 -41 -14 -62 -17
-34 -5 -40 -10 -43 -36 -3 -16 -1 -31 4 -34 12 -8 438 -7 446 0 3 4 7 22 9 41
2 30 52 161 115 305 11 25 25 56 30 70 6 14 17 39 24 55 7 17 36 86 65 155 28
69 57 139 64 155 8 17 46 107 85 200 39 94 75 174 79 178 5 5 7 -26 4 -70 -2
-43 -6 -271 -8 -508 -2 -236 -5 -436 -6 -443 -4 -25 -58 -60 -102 -66 -43 -7
-45 -8 -45 -41 0 -35 0 -35 47 -36 184 -2 525 1 529 6 3 3 7 18 8 33 2 27 -1
29 -55 40 -68 14 -86 31 -99 92 -6 26 -9 257 -8 550 1 483 2 506 21 538 19 32
49 45 115 54 21 3 25 8 25 38 l0 35 -225 0 -224 0 -8 -38 c-7 -32 -40 -115
-167 -412 -10 -22 -26 -60 -37 -85 -10 -24 -19 -47 -20 -50 0 -3 -12 -31 -27
-64 -15 -32 -27 -60 -27 -62 0 -2 -11 -28 -25 -58 -14 -30 -25 -57 -25 -60 0
-3 -11 -29 -24 -58 -25 -54 -99 -230 -109 -258 -2 -8 -3 128 -2 302 2 175 6
322 9 326 3 5 2 12 -1 16 -4 4 -6 71 -5 149 3 193 8 223 43 249 14 10 42 21
64 25 46 7 52 14 50 51 l-1 27 -292 0 c-161 0 -292 -2 -293 -5z"/>
<path d="M11416 8034 c-2 -6 -3 -20 -1 -30 2 -11 4 -22 4 -25 1 -3 7 -6 14 -6
90 -6 136 -24 156 -61 8 -16 6 -322 -3 -397 -2 -16 -6 -61 -10 -98 -4 -37 -10
-78 -12 -90 -3 -12 -7 -42 -10 -67 -3 -25 -10 -52 -15 -62 -5 -9 -8 -21 -7
-25 6 -24 -61 -233 -84 -260 -6 -7 -8 -13 -4 -13 3 0 -5 -18 -19 -40 -14 -22
-25 -42 -25 -45 0 -2 -26 -32 -57 -66 -86 -91 -78 -117 34 -121 69 -2 100 14
141 76 43 64 95 200 118 307 49 234 69 450 75 783 2 128 8 158 34 163 11 2 72
3 135 2 63 0 123 0 132 0 20 0 27 -30 28 -119 0 -36 1 -78 1 -95 1 -16 1 -36
0 -42 -2 -26 -2 -39 2 -70 2 -18 -1 -33 -6 -33 -4 0 -5 -5 -1 -11 4 -7 6 -75
5 -153 -1 -78 -1 -154 0 -171 0 -16 1 -36 0 -42 -2 -26 -2 -39 2 -70 2 -18 -1
-33 -6 -33 -4 0 -5 -5 -1 -12 4 -6 6 -52 5 -102 -1 -50 -2 -107 -2 -126 0 -19
-5 -51 -10 -71 -10 -40 -46 -64 -111 -74 -34 -5 -36 -8 -34 -38 l3 -32 291 -2
292 -2 0 34 c0 19 -3 36 -7 36 -5 1 -23 3 -42 5 -29 3 -110 43 -89 44 4 0 1
15 -7 34 -12 27 -14 128 -12 564 l2 532 26 25 c17 18 42 28 75 33 47 7 49 8
52 43 l3 35 -525 0 c-400 0 -526 -3 -530 -12z"/>
<path d="M12707 8037 c-2 -6 -1 -22 1 -37 4 -25 9 -28 55 -33 120 -12 131 -34
123 -245 -10 -279 -28 -422 -77 -616 -20 -80 -67 -207 -79 -216 -4 -3 -10 -15
-14 -27 -9 -27 -80 -119 -116 -150 -40 -33 -35 -73 10 -80 122 -18 155 -4 215
98 39 67 80 181 100 279 2 8 4 15 5 15 1 0 3 9 5 20 5 29 18 108 21 125 13 91
18 130 18 157 1 18 3 33 6 33 3 0 5 17 6 38 1 20 4 111 9 202 4 91 8 205 9
253 3 101 7 106 76 108 141 3 226 -2 238 -15 11 -10 13 -118 13 -552 -1 -296
-4 -554 -7 -572 -7 -37 -54 -81 -90 -83 -50 -3 -60 -10 -59 -46 l0 -28 293 -2
292 -2 0 33 c0 33 -2 34 -57 47 -41 10 -62 22 -77 42 -21 28 -21 36 -21 571 0
440 3 548 14 569 13 24 64 46 119 50 18 1 22 7 22 37 l0 36 -525 0 c-337 1
-526 -3 -528 -9z"/>
<path d="M1085 7174 c-38 -8 -79 -16 -90 -18 -85 -17 -243 -92 -343 -163 -67
-48 -205 -181 -252 -243 -100 -132 -169 -256 -233 -416 -39 -96 -89 -256 -102
-322 -2 -13 -6 -31 -9 -40 -3 -9 -7 -33 -10 -52 -3 -19 -8 -46 -10 -59 -3 -13
-8 -49 -11 -80 -4 -31 -8 -67 -11 -81 -2 -14 -7 -76 -10 -139 l-6 -114 89 89
c88 89 165 159 219 202 16 12 43 33 59 45 58 46 200 137 212 137 7 0 13 4 13
9 0 4 54 34 120 65 129 61 333 132 470 165 112 27 227 51 300 65 19 3 44 8 55
10 165 34 231 49 290 66 39 11 77 22 85 24 148 38 375 171 485 286 l40 41 -30
26 c-16 14 -41 35 -55 47 -14 11 -54 43 -90 69 -36 27 -72 54 -80 61 -39 31
-235 144 -325 187 -97 45 -226 93 -279 103 -14 3 -29 7 -34 10 -5 3 -31 8 -58
12 -27 3 -53 9 -59 12 -20 12 -272 9 -340 -4z"/>
<path d="M2473 6390 c-131 -90 -340 -193 -543 -267 -90 -33 -302 -100 -345
-109 -11 -2 -50 -12 -87 -23 -38 -11 -68 -17 -68 -14 0 3 -6 1 -12 -4 -7 -6
-20 -10 -28 -11 -14 0 -152 -35 -330 -83 -295 -80 -567 -195 -692 -293 -14
-12 -41 -32 -60 -46 -65 -48 -209 -202 -242 -258 -5 -8 16 3 45 23 79 54 224
117 298 130 19 3 37 7 40 9 14 9 133 19 226 19 111 1 210 -8 323 -27 17 -3 44
-8 60 -11 15 -2 50 -9 77 -15 28 -6 70 -15 95 -20 25 -4 68 -14 95 -20 28 -7
59 -14 70 -16 11 -1 31 -6 45 -9 114 -28 261 -43 375 -40 143 4 164 9 260 55
84 41 143 91 205 176 35 46 86 144 81 153 -2 2 2 7 7 10 14 9 82 226 97 311 8
48 16 88 20 110 3 14 7 45 10 70 3 25 7 61 10 80 7 56 15 150 12 150 -1 0 -21
-14 -44 -30z"/>
<path d="M2986 6302 c-27 -3 -23 -7 53 -57 169 -111 312 -248 432 -410 33 -44
63 -84 67 -90 10 -14 45 -66 57 -87 98 -162 146 -251 269 -496 48 -95 114
-221 147 -279 32 -59 59 -108 59 -110 0 -8 168 -252 192 -278 15 -16 28 -33
28 -38 0 -4 48 -55 107 -113 105 -103 107 -105 119 -82 16 28 85 243 89 273 0
9 4 29 21 120 27 144 20 394 -16 545 -24 104 -67 221 -113 315 -28 55 -53 102
-56 105 -11 9 -51 69 -51 76 0 11 -82 106 -155 179 -236 236 -563 386 -920
421 -76 7 -282 11 -329 6z"/>
<path d="M2702 6108 c-17 -51 -33 -106 -37 -123 -4 -16 -9 -39 -12 -50 -20
-83 -19 -236 2 -345 10 -52 14 -66 30 -110 52 -144 162 -284 315 -400 76 -57
195 -130 350 -212 19 -10 58 -32 85 -48 28 -16 59 -35 70 -40 25 -14 39 -22
148 -90 49 -30 96 -60 105 -65 59 -36 223 -150 310 -216 56 -43 102 -76 102
-73 0 5 -86 112 -124 154 -55 62 -278 426 -346 565 -11 22 -38 72 -60 110 -23
39 -50 88 -61 110 -11 22 -24 47 -29 55 -9 14 -103 172 -139 233 -9 16 -26 41
-38 55 -13 15 -23 32 -23 39 0 6 -3 13 -7 15 -5 2 -28 30 -53 63 -81 110 -199
234 -295 312 -82 66 -226 153 -255 153 -4 0 -22 -42 -38 -92z"/>
</g>
</svg>
