<svg width="13" height="13" viewBox="0 0 13 13" fill="none" xmlns="http://www.w3.org/2000/svg">
<path d="M12.1606 5.64929C12.403 5.40577 12.4859 5.05155 12.3815 4.71947C12.2772 4.3874 12.0071 4.15336 11.6726 4.10276L8.70477 3.65683C8.57894 3.63785 8.46845 3.55562 8.41321 3.4386L7.08429 0.668132C6.93698 0.35503 6.63314 0.162109 6.29554 0.162109C5.95794 0.162109 5.65717 0.35503 5.50678 0.668132L4.18093 3.4386C4.12569 3.55562 4.0152 3.63785 3.88937 3.65683L0.921562 4.10276C0.587032 4.15336 0.313883 4.3874 0.209534 4.71947C0.105185 5.05155 0.191119 5.40577 0.433577 5.64929L2.58194 7.80621C2.67401 7.89793 2.71391 8.03076 2.69243 8.16043L2.18603 11.206C2.14306 11.4749 2.21058 11.7374 2.37938 11.9398C2.64332 12.2624 3.09755 12.3573 3.46584 12.1612L6.11446 10.7253C6.22495 10.6652 6.36613 10.6652 6.47661 10.7253L9.13137 12.1643C9.26028 12.2339 9.39838 12.2719 9.53956 12.2719C9.79737 12.2719 10.046 12.1517 10.2148 11.9461C10.3836 11.7405 10.4511 11.478 10.4081 11.2124L9.90172 8.16675C9.88023 8.03708 9.9232 7.90425 10.0122 7.81254L12.1606 5.64929Z" fill="white"/>
</svg>
